<svg xmlns="http://www.w3.org/2000/svg">

    <symbol id="sync" viewBox="0 0 3.7041666 3.7041668">
        <title>sync</title>
        <g transform="translate(0,-293.29582)">
            <path d="m 3.2253366,293.9021 c -0.3386997,-0.36973 -0.8253346,-0.6017 -1.366143,-0.6017 -1.02281296,0 -1.85208326,0.82927 -1.85208326,1.85208 h 0.3472656 c 0,-0.83112 0.67369526,-1.50481 1.50481766,-1.50481 0.4449631,0 0.8447816,0.19331 1.120279,0.50029 l -0.5415029,0.5415 H 3.711277 v -1.2733 z" />
            <path d="m 3.3640114,295.15248 c 0,0.83113 -0.6736953,1.50482 -1.5048178,1.50482 -0.444963,0 -0.8447815,-0.19331 -1.12027886,-0.50029 L 1.2804176,295.6155 H 0.00711034 v 1.27331 l 0.4859403,-0.48594 c 0.3386998,0.36972 0.82533466,0.6017 1.36614296,0.6017 1.0228131,0 1.8520834,-0.82927 1.8520834,-1.85209 z" />
        </g>
    </symbol>

</svg>